<?xml version="1.0" encoding="UTF-8"?>
<svg xmlns="http://www.w3.org/2000/svg" viewBox="0 0 24 24" width="24" height="24" aria-label="Extensions / plugins" role="img">
  <title>Extensions / plugins</title>
  <path d="M21 16V8a2 2 0 0 0-1-1.73l-7-4a2 2 0 0 0-2 0l-7 4A2 2 0 0 0 3 8v8a2 2 0 0 0 1 1.73l7 4a2 2 0 0 0 2 0l7-4A2 2 0 0 0 21 16z" stroke="#E8F4FD" stroke-width="1.8" stroke-linecap="round" stroke-linejoin="round" fill="none" />
  <line x1="12" y1="22" x2="12" y2="12" stroke="#E8F4FD" stroke-width="1.8" stroke-linecap="round" stroke-linejoin="round" fill="none" />
  <path d="M3.27 6.96 12 12.01l8.73-5.05" stroke="#E8F4FD" stroke-width="1.8" stroke-linecap="round" stroke-linejoin="round" fill="none" />
</svg>