<svg xmlns="http://www.w3.org/2000/svg" viewBox="0 0 800 600" width="100%" height="100%">
  <defs>
    <style>
      text {
        font-family: "Segoe UI", system-ui, -apple-system, sans-serif;
        fill: #e6edf3;
        font-size: 12px;
      }
      .muted { fill: #8b949e; }
      .bold { font-weight: 600; }
      .semibold { font-weight: 500; }
      .label {
        font-size: 10px;
        fill: #8b949e;
        font-weight: 600;
        text-transform: uppercase;
        letter-spacing: 0.5px;
      }
      .header-text {
        font-size: 10px;
        fill: #8b949e;
        font-weight: 600;
        text-transform: uppercase;
        letter-spacing: 0.5px;
      }
    </style>
    <linearGradient id="progGrad" x1="0%" y1="0%" x2="100%" y2="0%">
      <stop offset="0%" stop-color="#1f6feb" />
      <stop offset="100%" stop-color="#58a6ff" />
    </linearGradient>
    <linearGradient id="graphGrad" x1="0" y1="0" x2="0" y2="1">
      <stop offset="0%" stop-color="#58a6ff" stop-opacity="0.25" />
      <stop offset="100%" stop-color="#58a6ff" stop-opacity="0" />
    </linearGradient>
  </defs>

  <!-- Title Bar -->
  <rect x="0" y="0" width="800" height="36" fill="#161b22" />
  <circle cx="16" cy="18" r="6" fill="#ff5f57" />
  <circle cx="36" cy="18" r="6" fill="#febc2e" />
  <circle cx="56" cy="18" r="6" fill="#28c840" />
  <text x="160" y="23" fill="#8b949e" font-family="sans-serif" font-size="12">
    <tspan fill="#58a6ff" font-weight="500">Spider</tspan><tspan fill="#8b949e" font-weight="500"> Manager · 3 active</tspan>
  </text>

  <!-- Menu Bar -->
  <rect x="0" y="36" width="800" height="28" fill="#161b22" />
  <line x1="0" y1="36" x2="800" y2="36" stroke="#30363d" />
  <text x="12" y="55" fill="#e6edf3" font-family="sans-serif" font-size="12">File</text>
  <text x="60" y="55" fill="#e6edf3" font-family="sans-serif" font-size="12">View</text>
  <text x="108" y="55" fill="#e6edf3" font-family="sans-serif" font-size="12">Downloads</text>
  <text x="195" y="55" fill="#e6edf3" font-family="sans-serif" font-size="12">Tools</text>
  <text x="255" y="55" fill="#e6edf3" font-family="sans-serif" font-size="12">Help</text>

  <!-- Toolbar -->
  <rect x="0" y="64" width="800" height="48" fill="#161b22" />
  <line x1="0" y1="64" x2="800" y2="64" stroke="#30363d" />

  <rect x="12" y="73" width="80" height="30" rx="6" fill="#1f6feb" />
  <text x="22" y="93" fill="#ffffff" font-family="sans-serif" font-size="12" font-weight="500">＋ Add URL</text>

  <rect x="98" y="73" width="60" height="30" rx="6" fill="none" stroke="#30363d" />
  <text x="106" y="93" fill="#e6edf3" font-family="sans-serif" font-size="12">⬇ Batch</text>

  <line x1="165" y1="76" x2="165" y2="102" stroke="#30363d" />

  <rect x="172" y="73" width="70" height="30" rx="6" fill="none" stroke="#30363d" />
  <text x="180" y="93" fill="#e6edf3" font-family="sans-serif" font-size="12">▶ Resume</text>

  <rect x="248" y="73" width="60" height="30" rx="6" fill="none" stroke="#30363d" />
  <text x="256" y="93" fill="#e6edf3" font-family="sans-serif" font-size="12">⏸ Pause</text>

  <rect x="314" y="73" width="60" height="30" rx="6" fill="none" stroke="#30363d" />
  <text x="322" y="93" fill="#e6edf3" font-family="sans-serif" font-size="12">✕ Cancel</text>

  <line x1="380" y1="76" x2="380" y2="102" stroke="#30363d" />

  <rect x="387" y="73" width="65" height="30" rx="6" fill="none" stroke="#30363d" />
  <text x="395" y="93" fill="#e6edf3" font-family="sans-serif" font-size="12">🗑 Delete</text>

  <rect x="458" y="73" width="85" height="30" rx="6" fill="none" stroke="#30363d" />
  <text x="466" y="93" fill="#e6edf3" font-family="sans-serif" font-size="12">📁 Open Folder</text>

  <line x1="550" y1="76" x2="550" y2="102" stroke="#30363d" />

  <rect x="557" y="73" width="65" height="30" rx="6" fill="none" stroke="#30363d" />
  <text x="565" y="93" fill="#e6edf3" font-family="sans-serif" font-size="12">⚙ Settings</text>

  <rect x="680" y="73" width="108" height="30" rx="6" fill="#0d1117" stroke="#30363d" />
  <text x="690" y="93" fill="#8b949e" font-family="sans-serif" font-size="14">⌕</text>
  <text x="710" y="93" fill="#8b949e" font-family="sans-serif" font-size="12">Search downloads...</text>

  <!-- Sidebar -->
  <rect x="0" y="112" width="190" height="462" fill="#161b22" />
  <line x1="190" y1="112" x2="190" y2="574" stroke="#30363d" />
  
  <!-- Sidebar Sections -->
  <text x="16" y="132" class="label">Categories</text>
  
  <rect x="8" y="142" width="174" height="24" rx="6" fill="rgba(31,111,235,0.18)" />
  <text x="16" y="158" fill="#58a6ff" font-family="sans-serif" font-size="12" font-weight="600">⊞</text>
  <text x="36" y="158" fill="#58a6ff" font-family="sans-serif" font-size="12" font-weight="600">All Downloads</text>
  <rect x="155" y="150" width="20" height="14" rx="7" fill="rgba(88,166,255,0.2)" />
  <text x="165" y="160" fill="#58a6ff" font-family="sans-serif" font-size="10" text-anchor="middle" font-weight="600">12</text>

  <text x="16" y="184" fill="#58a6ff" font-family="sans-serif" font-size="14">▶</text>
  <text x="36" y="184" fill="#e6edf3" font-family="sans-serif" font-size="12">Downloading</text>
  <rect x="155" y="176" width="20" height="14" rx="7" fill="#21262d" />
  <text x="165" y="186" fill="#8b949e" font-family="sans-serif" font-size="10" text-anchor="middle">3</text>

  <text x="16" y="210" fill="#d29922" font-family="sans-serif" font-size="14">⏸</text>
  <text x="36" y="210" fill="#e6edf3" font-family="sans-serif" font-size="12">Paused</text>
  <rect x="155" y="202" width="20" height="14" rx="7" fill="#21262d" />
  <text x="165" y="212" fill="#8b949e" font-family="sans-serif" font-size="10" text-anchor="middle">2</text>

  <text x="16" y="236" fill="#3fb950" font-family="sans-serif" font-size="14">✓</text>
  <text x="36" y="236" fill="#e6edf3" font-family="sans-serif" font-size="12">Completed</text>
  <rect x="155" y="228" width="20" height="14" rx="7" fill="#21262d" />
  <text x="165" y="238" fill="#8b949e" font-family="sans-serif" font-size="10" text-anchor="middle">6</text>

  <text x="16" y="262" fill="#f78166" font-family="sans-serif" font-size="14">!</text>
  <text x="36" y="262" fill="#e6edf3" font-family="sans-serif" font-size="12">Failed</text>
  <rect x="155" y="254" width="20" height="14" rx="7" fill="#21262d" />
  <text x="165" y="264" fill="#8b949e" font-family="sans-serif" font-size="10" text-anchor="middle">1</text>

  <line x1="12" y1="282" x2="178" y2="282" stroke="#30363d" />

  <text x="16" y="302" class="label">File Type</text>

  <text x="16" y="326" fill="#e6edf3" font-family="sans-serif" font-size="14">🎬</text>
  <text x="36" y="326" fill="#e6edf3" font-family="sans-serif" font-size="12">Video</text>
  <rect x="155" y="318" width="20" height="14" rx="7" fill="#21262d" />
  <text x="165" y="328" fill="#8b949e" font-family="sans-serif" font-size="10" text-anchor="middle">4</text>

  <text x="16" y="352" fill="#e6edf3" font-family="sans-serif" font-size="14">🎵</text>
  <text x="36" y="352" fill="#e6edf3" font-family="sans-serif" font-size="12">Audio</text>
  <rect x="155" y="344" width="20" height="14" rx="7" fill="#21262d" />
  <text x="165" y="354" fill="#8b949e" font-family="sans-serif" font-size="10" text-anchor="middle">2</text>

  <text x="16" y="378" fill="#e6edf3" font-family="sans-serif" font-size="14">📄</text>
  <text x="36" y="378" fill="#e6edf3" font-family="sans-serif" font-size="12">Documents</text>
  <rect x="155" y="370" width="20" height="14" rx="7" fill="#21262d" />
  <text x="165" y="380" fill="#8b949e" font-family="sans-serif" font-size="10" text-anchor="middle">3</text>

  <text x="16" y="404" fill="#e6edf3" font-family="sans-serif" font-size="14">📦</text>
  <text x="36" y="404" fill="#e6edf3" font-family="sans-serif" font-size="12">Archives</text>
  <rect x="155" y="396" width="20" height="14" rx="7" fill="#21262d" />
  <text x="165" y="406" fill="#8b949e" font-family="sans-serif" font-size="10" text-anchor="middle">2</text>

  <text x="16" y="430" fill="#e6edf3" font-family="sans-serif" font-size="14">⚙</text>
  <text x="36" y="430" fill="#e6edf3" font-family="sans-serif" font-size="12">Programs</text>
  <rect x="155" y="422" width="20" height="14" rx="7" fill="#21262d" />
  <text x="165" y="432" fill="#8b949e" font-family="sans-serif" font-size="10" text-anchor="middle">1</text>

  <line x1="12" y1="456" x2="178" y2="456" stroke="#30363d" />

  <text x="16" y="476" class="label">Scheduler</text>
  <text x="16" y="498" fill="#e6edf3" font-family="sans-serif" font-size="14">🕐</text>
  <text x="36" y="498" fill="#e6edf3" font-family="sans-serif" font-size="12">Scheduled</text>
  <rect x="155" y="490" width="20" height="14" rx="7" fill="#21262d" />
  <text x="165" y="500" fill="#8b949e" font-family="sans-serif" font-size="10" text-anchor="middle">0</text>

  <!-- Speed Box -->
  <rect x="12" y="514" width="166" height="60" rx="8" fill="#21262d" />
  <text x="24" y="532" class="label">Total Speed</text>
  <text x="24" y="556" fill="#58a6ff" font-family="sans-serif" font-size="20" font-weight="700">4.7</text>
  <text x="60" y="556" fill="#8b949e" font-family="sans-serif" font-size="11"> MB/s download</text>

  <!-- Content Area -->
  <!-- Tab Bar -->
  <rect x="190" y="112" width="610" height="30" fill="#161b22" />
  <line x1="190" y1="112" x2="800" y2="112" stroke="#30363d" />
  
  <text x="206" y="133" fill="#58a6ff" font-family="sans-serif" font-size="12" font-weight="500">All Downloads</text>
  <line x1="206" y1="138" x2="290" y2="138" stroke="#58a6ff" stroke-width="2" />
  
  <text x="320" y="133" fill="#8b949e" font-family="sans-serif" font-size="12">Queue</text>
  <text x="380" y="133" fill="#8b949e" font-family="sans-serif" font-size="12">Scheduler</text>
  <text x="460" y="133" fill="#8b949e" font-family="sans-serif" font-size="12">Speed Limiter</text>

  <!-- Table Area -->
  <!-- Header -->
  <rect x="190" y="142" width="610" height="24" fill="#161b22" />
  <line x1="190" y1="142" x2="800" y2="142" stroke="#30363d" />
  <line x1="190" y1="166" x2="800" y2="166" stroke="#30363d" />
  
  <text x="230" y="158" class="header-text">Filename</text>
  <text x="440" y="158" class="header-text">Size</text>
  <text x="490" y="158" class="header-text">Progress</text>
  <text x="580" y="158" class="header-text">Speed</text>
  <text x="635" y="158" class="header-text">ETA</text>
  <text x="690" y="158" class="header-text">Category</text>
  <text x="760" y="158" class="header-text">Actions</text>

  <!-- Row Templates -->
  <!-- Row 1 (Downloading) -->
  <g transform="translate(190, 166)">
    <line x1="0" y1="24" x2="610" y2="24" stroke="rgba(48,54,61,0.6)" />
    <rect x="0" y="0" width="610" height="24" fill="rgba(33,38,45,0.1)" />
    <text x="12" y="17" fill="#58a6ff" font-family="sans-serif" font-size="14">▶</text>
    <text x="30" y="17" fill="#e6edf3" font-family="sans-serif" font-size="12" font-weight="500">ubuntu-24.04-desktop-amd64.iso</text>
    <text x="250" y="17" fill="#8b949e" font-family="sans-serif" font-size="12">5.2 GB</text>
    <!-- Progress Bar -->
    <rect x="300" y="7" width="110" height="10" rx="5" fill="#21262d" />
    <rect x="300" y="7" width="70" height="10" rx="5" fill="url(#progGrad)" />
    <text x="340" y="17" fill="#8b949e" font-family="sans-serif" font-size="10" text-anchor="middle">64%</text>
    <text x="390" y="17" fill="#58a6ff" font-family="sans-serif" font-size="11">4.2 MB/s</text>
    <text x="445" y="17" fill="#8b949e" font-family="sans-serif" font-size="11">8m 12s</text>
    <rect x="495" y="4" width="55" height="16" rx="8" fill="rgba(139,148,158,0.12)" />
    <text x="522" y="16" fill="#8b949e" font-family="sans-serif" font-size="10" text-anchor="middle">Program</text>
    <text x="570" y="17" fill="#8b949e" font-family="sans-serif" font-size="10">⏸</text>
    <text x="585" y="17" fill="#8b949e" font-family="sans-serif" font-size="10">📁</text>
    <text x="600" y="17" fill="#8b949e" font-family="sans-serif" font-size="10">✕</text>
  </g>

  <!-- Row 2 (Downloading) -->
  <g transform="translate(190, 190)">
    <line x1="0" y1="24" x2="610" y2="24" stroke="rgba(48,54,61,0.6)" />
    <text x="12" y="17" fill="#58a6ff" font-family="sans-serif" font-size="14">▶</text>
    <text x="30" y="17" fill="#e6edf3" font-family="sans-serif" font-size="12" font-weight="500">Interstellar.2014.2160p.mkv</text>
    <text x="250" y="17" fill="#8b949e" font-family="sans-serif" font-size="12">28.4 GB</text>
    <rect x="300" y="7" width="110" height="10" rx="5" fill="#21262d" />
    <rect x="300" y="7" width="34" height="10" rx="5" fill="url(#progGrad)" />
    <text x="340" y="17" fill="#8b949e" font-family="sans-serif" font-size="10" text-anchor="middle">31%</text>
    <text x="390" y="17" fill="#58a6ff" font-family="sans-serif" font-size="11">6.1 MB/s</text>
    <text x="445" y="17" fill="#8b949e" font-family="sans-serif" font-size="11">1h 14m</text>
    <rect x="495" y="4" width="45" height="16" rx="8" fill="rgba(88,166,255,0.12)" />
    <text x="517" y="16" fill="#58a6ff" font-family="sans-serif" font-size="10" text-anchor="middle">Video</text>
    <text x="570" y="17" fill="#8b949e" font-family="sans-serif" font-size="10">⏸</text>
    <text x="585" y="17" fill="#8b949e" font-family="sans-serif" font-size="10">📁</text>
    <text x="600" y="17" fill="#8b949e" font-family="sans-serif" font-size="10">✕</text>
  </g>

  <!-- Row 3 (Downloading) -->
  <g transform="translate(190, 214)">
    <line x1="0" y1="24" x2="610" y2="24" stroke="rgba(48,54,61,0.6)" />
    <text x="12" y="17" fill="#58a6ff" font-family="sans-serif" font-size="14">▶</text>
    <text x="30" y="17" fill="#e6edf3" font-family="sans-serif" font-size="12" font-weight="500">Pink Floyd - Wish You Were.flac</text>
    <text x="250" y="17" fill="#8b949e" font-family="sans-serif" font-size="12">412 MB</text>
    <rect x="300" y="7" width="110" height="10" rx="5" fill="#21262d" />
    <rect x="300" y="7" width="95" height="10" rx="5" fill="url(#progGrad)" />
    <text x="340" y="17" fill="#8b949e" font-family="sans-serif" font-size="10" text-anchor="middle">87%</text>
    <text x="390" y="17" fill="#58a6ff" font-family="sans-serif" font-size="11">2.8 MB/s</text>
    <text x="445" y="17" fill="#8b949e" font-family="sans-serif" font-size="11">45s</text>
    <rect x="495" y="4" width="45" height="16" rx="8" fill="rgba(63,185,80,0.12)" />
    <text x="517" y="16" fill="#3fb950" font-family="sans-serif" font-size="10" text-anchor="middle">Audio</text>
    <text x="570" y="17" fill="#8b949e" font-family="sans-serif" font-size="10">⏸</text>
    <text x="585" y="17" fill="#8b949e" font-family="sans-serif" font-size="10">📁</text>
    <text x="600" y="17" fill="#8b949e" font-family="sans-serif" font-size="10">✕</text>
  </g>

  <!-- Row 4 (Paused) -->
  <g transform="translate(190, 238)">
    <line x1="0" y1="24" x2="610" y2="24" stroke="rgba(48,54,61,0.6)" />
    <text x="12" y="17" fill="#d29922" font-family="sans-serif" font-size="14">⏸</text>
    <text x="30" y="17" fill="#e6edf3" font-family="sans-serif" font-size="12" font-weight="500">Adobe Premiere Pro 2024.zip</text>
    <text x="250" y="17" fill="#8b949e" font-family="sans-serif" font-size="12">3.8 GB</text>
    <rect x="300" y="7" width="110" height="10" rx="5" fill="#21262d" />
    <rect x="300" y="7" width="50" height="10" rx="5" fill="url(#progGrad)" />
    <text x="340" y="17" fill="#8b949e" font-family="sans-serif" font-size="10" text-anchor="middle">45%</text>
    <text x="390" y="17" fill="#8b949e" font-family="sans-serif" font-size="11">—</text>
    <text x="445" y="17" fill="#8b949e" font-family="sans-serif" font-size="11">—</text>
    <rect x="495" y="4" width="55" height="16" rx="8" fill="rgba(247,129,102,0.12)" />
    <text x="522" y="16" fill="#f78166" font-family="sans-serif" font-size="10" text-anchor="middle">Archive</text>
    <text x="570" y="17" fill="#8b949e" font-family="sans-serif" font-size="10">▶</text>
    <text x="585" y="17" fill="#8b949e" font-family="sans-serif" font-size="10">📁</text>
    <text x="600" y="17" fill="#8b949e" font-family="sans-serif" font-size="10">✕</text>
  </g>

  <!-- Row 5 (Completed) -->
  <g transform="translate(190, 262)">
    <line x1="0" y1="24" x2="610" y2="24" stroke="rgba(48,54,61,0.6)" />
    <text x="12" y="17" fill="#3fb950" font-family="sans-serif" font-size="14">✓</text>
    <text x="30" y="17" fill="#e6edf3" font-family="sans-serif" font-size="12" font-weight="500">deep_learning_book.pdf</text>
    <text x="250" y="17" fill="#8b949e" font-family="sans-serif" font-size="12">18 MB</text>
    <rect x="300" y="7" width="110" height="10" rx="5" fill="#21262d" />
    <rect x="300" y="7" width="110" height="10" rx="5" fill="#238636" />
    <text x="340" y="17" fill="#8b949e" font-family="sans-serif" font-size="10" text-anchor="middle">100%</text>
    <text x="390" y="17" fill="#8b949e" font-family="sans-serif" font-size="11">—</text>
    <text x="445" y="17" fill="#8b949e" font-family="sans-serif" font-size="11">done</text>
    <rect x="495" y="4" width="60" height="16" rx="8" fill="rgba(210,153,34,0.12)" />
    <text x="525" y="16" fill="#d29922" font-family="sans-serif" font-size="10" text-anchor="middle">Document</text>
    <text x="585" y="17" fill="#8b949e" font-family="sans-serif" font-size="10">📁</text>
    <text x="600" y="17" fill="#8b949e" font-family="sans-serif" font-size="10">✕</text>
  </g>

  <!-- Row 6 (Completed) -->
  <g transform="translate(190, 286)">
    <line x1="0" y1="24" x2="610" y2="24" stroke="rgba(48,54,61,0.6)" />
    <text x="12" y="17" fill="#3fb950" font-family="sans-serif" font-size="14">✓</text>
    <text x="30" y="17" fill="#e6edf3" font-family="sans-serif" font-size="12" font-weight="500">Blender-4.1-linux-x64.tar.xz</text>
    <text x="250" y="17" fill="#8b949e" font-family="sans-serif" font-size="12">221 MB</text>
    <rect x="300" y="7" width="110" height="10" rx="5" fill="#21262d" />
    <rect x="300" y="7" width="110" height="10" rx="5" fill="#238636" />
    <text x="340" y="17" fill="#8b949e" font-family="sans-serif" font-size="10" text-anchor="middle">100%</text>
    <text x="390" y="17" fill="#8b949e" font-family="sans-serif" font-size="11">—</text>
    <text x="445" y="17" fill="#8b949e" font-family="sans-serif" font-size="11">done</text>
    <rect x="495" y="4" width="55" height="16" rx="8" fill="rgba(139,148,158,0.12)" />
    <text x="522" y="16" fill="#8b949e" font-family="sans-serif" font-size="10" text-anchor="middle">Program</text>
    <text x="585" y="17" fill="#8b949e" font-family="sans-serif" font-size="10">📁</text>
    <text x="600" y="17" fill="#8b949e" font-family="sans-serif" font-size="10">✕</text>
  </g>

  <!-- Row 7 (Queued) -->
  <g transform="translate(190, 310)">
    <line x1="0" y1="24" x2="610" y2="24" stroke="rgba(48,54,61,0.6)" />
    <text x="12" y="17" fill="#8b949e" font-family="sans-serif" font-size="14">…</text>
    <text x="30" y="17" fill="#e6edf3" font-family="sans-serif" font-size="12" font-weight="500">bohemian_rhapsody_4k.mp4</text>
    <text x="250" y="17" fill="#8b949e" font-family="sans-serif" font-size="12">7.1 GB</text>
    <rect x="300" y="7" width="110" height="10" rx="5" fill="#21262d" />
    <rect x="300" y="7" width="24" height="10" rx="5" fill="url(#progGrad)" />
    <text x="340" y="17" fill="#8b949e" font-family="sans-serif" font-size="10" text-anchor="middle">22%</text>
    <text x="390" y="17" fill="#8b949e" font-family="sans-serif" font-size="11">—</text>
    <text x="445" y="17" fill="#8b949e" font-family="sans-serif" font-size="11">—</text>
    <rect x="495" y="4" width="45" height="16" rx="8" fill="rgba(88,166,255,0.12)" />
    <text x="517" y="16" fill="#58a6ff" font-family="sans-serif" font-size="10" text-anchor="middle">Video</text>
    <text x="570" y="17" fill="#8b949e" font-family="sans-serif" font-size="10">▶</text>
    <text x="585" y="17" fill="#8b949e" font-family="sans-serif" font-size="10">📁</text>
    <text x="600" y="17" fill="#8b949e" font-family="sans-serif" font-size="10">✕</text>
  </g>

  <!-- Row 8 (Error) -->
  <g transform="translate(190, 334)">
    <line x1="0" y1="24" x2="610" y2="24" stroke="rgba(48,54,61,0.6)" />
    <text x="12" y="17" fill="#f78166" font-family="sans-serif" font-size="14">!</text>
    <text x="30" y="17" fill="#e6edf3" font-family="sans-serif" font-size="12" font-weight="500">python-3.12.3-amd64.exe</text>
    <text x="250" y="17" fill="#8b949e" font-family="sans-serif" font-size="12">25 MB</text>
    <rect x="300" y="7" width="110" height="10" rx="5" fill="#21262d" />
    <rect x="300" y="7" width="0" height="10" rx="5" fill="#f78166" />
    <text x="340" y="17" fill="#f78166" font-family="sans-serif" font-size="10" text-anchor="middle">Error</text>
    <text x="390" y="17" fill="#f78166" font-family="sans-serif" font-size="11">!</text>
    <text x="445" y="17" fill="#8b949e" font-family="sans-serif" font-size="11">error</text>
    <rect x="495" y="4" width="55" height="16" rx="8" fill="rgba(139,148,158,0.12)" />
    <text x="522" y="16" fill="#8b949e" font-family="sans-serif" font-size="10" text-anchor="middle">Program</text>
    <text x="585" y="17" fill="#8b949e" font-family="sans-serif" font-size="10">📁</text>
    <text x="600" y="17" fill="#8b949e" font-family="sans-serif" font-size="10">✕</text>
  </g>

  <!-- Row 9 (Completed) -->
  <g transform="translate(190, 358)">
    <line x1="0" y1="24" x2="610" y2="24" stroke="rgba(48,54,61,0.6)" />
    <text x="12" y="17" fill="#3fb950" font-family="sans-serif" font-size="14">✓</text>
    <text x="30" y="17" fill="#e6edf3" font-family="sans-serif" font-size="12" font-weight="500">Dune.Part.Two.2024.mkv</text>
    <text x="250" y="17" fill="#8b949e" font-family="sans-serif" font-size="12">22.8 GB</text>
    <rect x="300" y="7" width="110" height="10" rx="5" fill="#21262d" />
    <rect x="300" y="7" width="110" height="10" rx="5" fill="#238636" />
    <text x="340" y="17" fill="#8b949e" font-family="sans-serif" font-size="10" text-anchor="middle">100%</text>
    <text x="390" y="17" fill="#8b949e" font-family="sans-serif" font-size="11">—</text>
    <text x="445" y="17" fill="#8b949e" font-family="sans-serif" font-size="11">done</text>
    <rect x="495" y="4" width="45" height="16" rx="8" fill="rgba(88,166,255,0.12)" />
    <text x="517" y="16" fill="#58a6ff" font-family="sans-serif" font-size="10" text-anchor="middle">Video</text>
    <text x="585" y="17" fill="#8b949e" font-family="sans-serif" font-size="10">📁</text>
    <text x="600" y="17" fill="#8b949e" font-family="sans-serif" font-size="10">✕</text>
  </g>

  <!-- Row 10 (Completed) -->
  <g transform="translate(190, 382)">
    <line x1="0" y1="24" x2="610" y2="24" stroke="rgba(48,54,61,0.6)" />
    <text x="12" y="17" fill="#3fb950" font-family="sans-serif" font-size="14">✓</text>
    <text x="30" y="17" fill="#e6edf3" font-family="sans-serif" font-size="12" font-weight="500">nodejs-v22.0.0-win-x64.zip</text>
    <text x="250" y="17" fill="#8b949e" font-family="sans-serif" font-size="12">29 MB</text>
    <rect x="300" y="7" width="110" height="10" rx="5" fill="#21262d" />
    <rect x="300" y="7" width="110" height="10" rx="5" fill="#238636" />
    <text x="340" y="17" fill="#8b949e" font-family="sans-serif" font-size="10" text-anchor="middle">100%</text>
    <text x="390" y="17" fill="#8b949e" font-family="sans-serif" font-size="11">—</text>
    <text x="445" y="17" fill="#8b949e" font-family="sans-serif" font-size="11">done</text>
    <rect x="495" y="4" width="55" height="16" rx="8" fill="rgba(247,129,102,0.12)" />
    <text x="522" y="16" fill="#f78166" font-family="sans-serif" font-size="10" text-anchor="middle">Archive</text>
    <text x="585" y="17" fill="#8b949e" font-family="sans-serif" font-size="10">📁</text>
    <text x="600" y="17" fill="#8b949e" font-family="sans-serif" font-size="10">✕</text>
  </g>

  <!-- Row 11 (Paused) -->
  <g transform="translate(190, 406)">
    <line x1="0" y1="24" x2="610" y2="24" stroke="rgba(48,54,61,0.6)" />
    <text x="12" y="17" fill="#d29922" font-family="sans-serif" font-size="14">⏸</text>
    <text x="30" y="17" fill="#e6edf3" font-family="sans-serif" font-size="12" font-weight="500">arch-linux-2024.iso</text>
    <text x="250" y="17" fill="#8b949e" font-family="sans-serif" font-size="12">874 MB</text>
    <rect x="300" y="7" width="110" height="10" rx="5" fill="#21262d" />
    <rect x="300" y="7" width="61" height="10" rx="5" fill="url(#progGrad)" />
    <text x="340" y="17" fill="#8b949e" font-family="sans-serif" font-size="10" text-anchor="middle">55%</text>
    <text x="390" y="17" fill="#8b949e" font-family="sans-serif" font-size="11">—</text>
    <text x="445" y="17" fill="#8b949e" font-family="sans-serif" font-size="11">—</text>
    <rect x="495" y="4" width="55" height="16" rx="8" fill="rgba(139,148,158,0.12)" />
    <text x="522" y="16" fill="#8b949e" font-family="sans-serif" font-size="10" text-anchor="middle">Program</text>
    <text x="570" y="17" fill="#8b949e" font-family="sans-serif" font-size="10">▶</text>
    <text x="585" y="17" fill="#8b949e" font-family="sans-serif" font-size="10">📁</text>
    <text x="600" y="17" fill="#8b949e" font-family="sans-serif" font-size="10">✕</text>
  </g>

  <!-- Row 12 (Completed) -->
  <g transform="translate(190, 430)">
    <line x1="0" y1="24" x2="610" y2="24" stroke="rgba(48,54,61,0.6)" />
    <text x="12" y="17" fill="#3fb950" font-family="sans-serif" font-size="14">✓</text>
    <text x="30" y="17" fill="#e6edf3" font-family="sans-serif" font-size="12" font-weight="500">lofi_study_mix_8hr.mp3</text>
    <text x="250" y="17" fill="#8b949e" font-family="sans-serif" font-size="12">890 MB</text>
    <rect x="300" y="7" width="110" height="10" rx="5" fill="#21262d" />
    <rect x="300" y="7" width="110" height="10" rx="5" fill="#238636" />
    <text x="340" y="17" fill="#8b949e" font-family="sans-serif" font-size="10" text-anchor="middle">100%</text>
    <text x="390" y="17" fill="#8b949e" font-family="sans-serif" font-size="11">—</text>
    <text x="445" y="17" fill="#8b949e" font-family="sans-serif" font-size="11">done</text>
    <rect x="495" y="4" width="45" height="16" rx="8" fill="rgba(63,185,80,0.12)" />
    <text x="517" y="16" fill="#3fb950" font-family="sans-serif" font-size="10" text-anchor="middle">Audio</text>
    <text x="585" y="17" fill="#8b949e" font-family="sans-serif" font-size="10">📁</text>
    <text x="600" y="17" fill="#8b949e" font-family="sans-serif" font-size="10">✕</text>
  </g>

  <!-- Graph Frame -->
  <rect x="190" y="484" width="610" height="90" fill="#161b22" />
  <line x1="190" y1="484" x2="800" y2="484" stroke="#30363d" />
  
  <text x="206" y="502" class="label">↓ Download Speed (last 60s)</text>
  <text x="794" y="502" fill="#8b949e" font-family="sans-serif" font-size="10" text-anchor="end">Peak: <tspan fill="#58a6ff">8.2 MB/s</tspan></text>

  <rect x="206" y="512" width="580" height="48" fill="#0d1117" rx="4" />

  <!-- Graph Grid Lines -->
  <line x1="206" y1="524" x2="786" y2="524" stroke="#21262d" stroke-width="0.5" />
  <line x1="206" y1="536" x2="786" y2="536" stroke="#21262d" stroke-width="0.5" />
  <line x1="206" y1="548" x2="786" y2="548" stroke="#21262d" stroke-width="0.5" />

  <!-- Graph Path -->
  <path d="M 206,550 Q 210,545 214,538 T 222,528 T 230,535 T 238,525 T 246,528 T 254,538 T 262,530 T 270,535 T 278,540 T 286,528 T 294,522 T 302,534 T 310,528 T 318,540 T 326,545 T 334,538 T 342,528 T 350,535 T 358,530 T 366,522 T 374,535 T 382,540 T 390,528 T 398,535 T 406,542 T 414,550 T 422,548 T 430,538 T 438,530 T 446,535 T 454,545 T 462,540 T 470,528 T 478,538 T 486,548 T 494,542 T 502,530 T 510,538 T 518,530 T 526,525 T 534,538 T 542,545 T 550,550 T 558,548 T 566,540 T 574,530 T 582,535 T 590,528 T 598,538 T 606,545 T 614,530 T 622,542 T 630,550 T 638,545 T 646,535 T 654,528 T 662,540 T 670,548 T 678,540 T 686,530 T 694,538 T 702,535 T 710,528 T 718,540 T 726,545 T 734,535 T 742,528 T 750,535 T 758,530 T 766,538 T 774,545 T 782,535 T 786,530" 
        fill="none" stroke="#58a6ff" stroke-width="1.5" stroke-linejoin="round" />

  <!-- Graph Fill -->
  <path d="M 206,560 L 206,550 Q 210,545 214,538 T 222,528 T 230,535 T 238,525 T 246,528 T 254,538 T 262,530 T 270,535 T 278,540 T 286,528 T 294,522 T 302,534 T 310,528 T 318,540 T 326,545 T 334,538 T 342,528 T 350,535 T 358,530 T 366,522 T 374,535 T 382,540 T 390,528 T 398,535 T 406,542 T 414,550 T 422,548 T 430,538 T 438,530 T 446,535 T 454,545 T 462,540 T 470,528 T 478,538 T 486,548 T 494,542 T 502,530 T 510,538 T 518,530 T 526,525 T 534,538 T 542,545 T 550,550 T 558,548 T 566,540 T 574,530 T 582,535 T 590,528 T 598,538 T 606,545 T 614,530 T 622,542 T 630,550 T 638,545 T 646,535 T 654,528 T 662,540 T 670,548 T 678,540 T 686,530 T 694,538 T 702,535 T 710,528 T 718,540 T 726,545 T 734,535 T 742,528 T 750,535 T 758,530 T 766,538 T 774,545 T 782,535 T 786,530 L 786,560 Z" 
        fill="url(#graphGrad)" />

  <!-- Status Bar -->
  <rect x="0" y="574" width="800" height="26" fill="#161b22" />
  <line x1="0" y1="574" x2="800" y2="574" stroke="#30363d" />

  <circle cx="12" cy="587" r="3" fill="#58a6ff" />
  <text x="20" y="591" fill="#8b949e" font-family="sans-serif" font-size="11">3 downloading</text>

  <circle cx="120" cy="587" r="3" fill="#d29922" />
  <text x="128" y="591" fill="#8b949e" font-family="sans-serif" font-size="11">2 paused</text>

  <circle cx="208" cy="587" r="3" fill="#3fb950" />
  <text x="216" y="591" fill="#8b949e" font-family="sans-serif" font-size="11">6 completed</text>

  <text x="650" y="591" fill="#8b949e" font-family="sans-serif" font-size="11">↓ <tspan fill="#e6edf3">4.7 MB/s</tspan></text>
  <text x="720" y="591" fill="#8b949e" font-family="sans-serif" font-size="11">💾 Disk free: <tspan fill="#e6edf3">142 GB</tspan></text>
  <text x="780" y="591" fill="#8b949e" font-family="sans-serif" font-size="11" text-anchor="end">14:32:07</text>
</svg>